<svg width="119" height="87" xmlns="http://www.w3.org/2000/svg" preserveAspectRatio="xMidYMid meet">
 <metadata>Created by potrace 1.10, written by Peter Selinger 2001-2011</metadata>

 <g>
  <title>background</title>
  <rect fill="none" id="canvas_background" height="89" width="121" y="-1" x="-1"/>
 </g>
 <g>
  <title>Layer 1</title>
  <g id="svg_1" fill="#000000" transform="translate(0,87) scale(0.10000000149011612,-0.10000000149011612) ">
   <path id="svg_2" d="m245,734c-82,-20 -137,-58 -178,-124c-21,-33 -22,-47 -22,-230c0,-183 1,-197 22,-230c32,-51 72,-86 123,-107c41,-16 81,-18 445,-18c453,0 440,-2 519,80c46,49 66,56 66,25c0,-12 17,-32 42,-50c51,-37 113,-41 164,-9c51,31 64,56 64,120c0,51 -3,59 -37,92c-35,35 -39,37 -105,37c-56,0 -71,-4 -85,-20c-34,-39 -40,-25 -46,118c-7,155 -18,193 -72,247c-70,70 -67,69 -495,71c-212,1 -394,0 -405,-2zm419,-140c63,-25 107,-63 150,-129c27,-42 27,-206 0,-251c-37,-60 -81,-101 -140,-130c-57,-28 -63,-29 -214,-29l-155,0l-3,270c-1,148 0,275 3,282c3,10 42,13 150,13c132,0 150,-2 209,-26zm742,-365c18,-36 13,-70 -16,-99c-26,-26 -51,-25 -83,3c-53,45 -23,126 45,127c32,0 40,-5 54,-31z"/>
   <path id="svg_3" d="m444,487c-2,-7 -3,-80 -2,-162l3,-150l38,-3c61,-5 142,25 172,64c21,28 25,43 25,102c0,80 -17,110 -81,142c-45,23 -147,28 -155,7z"/>
   <path id="svg_4" d="m1587,463c-4,-3 -7,-96 -7,-205c0,-215 1,-218 55,-204l25,6l0,199c0,172 -2,200 -16,205c-21,8 -49,8 -57,-1z"/>
   <path id="svg_5" d="m2083,464c-10,-4 -13,-55 -13,-204c0,-171 2,-199 16,-204c27,-11 54,-7 60,9c8,19 21,19 40,0c21,-21 94,-19 119,3c42,35 55,65 55,124c0,50 -4,62 -32,93c-30,35 -34,36 -87,33c-31,-2 -63,-6 -71,-9c-12,-3 -16,11 -20,76c-5,77 -6,80 -30,82c-14,1 -31,-1 -37,-3zm192,-235c20,-38 12,-83 -18,-104c-30,-21 -49,-19 -80,8c-53,45 -23,126 45,127c32,0 40,-5 53,-31z"/>
   <path id="svg_6" d="m1833,322c-22,-2 -43,-15 -67,-43c-30,-33 -36,-46 -36,-85c0,-93 65,-151 159,-142c30,3 60,13 71,23l21,19l-21,20c-17,17 -23,19 -40,8c-11,-6 -35,-12 -53,-12c-26,0 -36,6 -45,25c-15,32 -11,34 93,37l80,3l3,35c5,72 -68,121 -165,112zm87,-76c0,-35 -65,-49 -94,-20c-19,18 -13,32 17,43c26,10 77,-6 77,-23z"/>
   <path id="svg_7" d="m2456,301c-28,-31 -11,-44 48,-37c96,12 104,-32 10,-54c-70,-17 -94,-38 -94,-84c0,-61 66,-92 136,-65c21,7 34,7 50,-2c46,-24 54,-9 54,103c0,97 -2,105 -25,131c-23,24 -33,27 -94,27c-54,0 -71,-4 -85,-19zm134,-144c0,-27 -27,-50 -59,-50c-40,0 -47,7 -33,38c10,21 19,25 52,25c26,0 40,-4 40,-13z"/>
   <path id="svg_8" d="m2766,304c-25,-25 -38,-53 -31,-73c9,-30 44,-61 69,-61c28,0 73,-44 55,-55c-17,-11 -68,-8 -82,4c-13,10 -47,-9 -47,-27c0,-23 45,-42 101,-42c52,0 60,3 83,31c48,56 28,103 -57,134c-33,13 -47,23 -45,34c3,12 16,16 58,16c45,0 55,3 58,19c6,27 -15,36 -85,36c-43,0 -66,-5 -77,-16z"/>
   <path id="svg_9" d="m3208,297c-15,-12 -34,-40 -43,-61c-23,-55 -6,-116 44,-156c29,-25 45,-30 87,-30c67,0 84,7 84,35c0,28 -22,37 -65,29c-27,-5 -36,-1 -58,26c-32,38 -34,59 -7,93c17,21 31,27 73,29c48,3 52,5 52,28c0,24 -3,25 -70,27c-60,2 -74,0 -97,-20z"/>
   <path id="svg_10" d="m3479,281c-35,-34 -39,-44 -39,-87c0,-87 58,-144 144,-144c138,0 198,164 90,249c-21,16 -41,21 -92,21c-61,0 -66,-2 -103,-39zm153,-38c40,-36 7,-133 -46,-133c-53,0 -85,79 -50,128c18,27 69,30 96,5z"/>
   <path id="svg_11" d="m3804,311c-2,-2 -4,-60 -4,-128c0,-134 3,-142 55,-129c24,6 25,10 25,81c0,94 11,125 45,125c37,0 58,-55 53,-132c-5,-66 7,-84 47,-74c24,6 25,10 25,79c0,86 15,121 53,125c36,4 47,-25 47,-123c0,-65 2,-74 20,-80c11,-3 29,-4 40,0c18,6 19,13 16,111c-4,93 -7,109 -27,130c-18,19 -33,24 -71,24c-34,0 -50,-5 -54,-15c-8,-19 -38,-19 -53,-1c-9,11 -36,14 -112,13c-55,-1 -102,-4 -105,-6z"/>
   <path id="svg_12" d="m3000,119c-21,-39 30,-86 66,-61c18,12 24,42 14,63c-15,27 -66,26 -80,-2z"/>
  </g>
 </g>
</svg>